<svg width="321" height="256" viewBox="0 0 321 256" fill="none" xmlns="http://www.w3.org/2000/svg">
    <path d="M320 54.4737V243.119C320 246.27 318.755 249.292 316.54 251.52C314.325 253.748 311.32 255 308.187 255H14.2917C10.7665 255 7.38571 253.592 4.89304 251.084C2.40037 248.577 1 245.177 1 241.632V14.3684C1 10.8229 2.40037 7.42259 4.89304 4.91552C7.38571 2.40846 10.7665 1 14.2917 1H102.897C105.773 1 108.571 1.93816 110.872 3.67368L147.134 31.0237C155.808 37.5662 166.377 41.1053 177.242 41.1053H306.708C310.233 41.1053 313.614 42.5137 316.107 45.0208C318.6 47.5279 320 50.9282 320 54.4737Z" fill="#00918E" stroke="white" stroke-width="2" stroke-linecap="round" stroke-linejoin="round"/>
</svg>
