<svg width="28" height="28" viewBox="0 0 28 28" fill="none" xmlns="http://www.w3.org/2000/svg">
<path d="M10.4907 10.4829C10.305 10.4829 10.127 10.5565 9.9957 10.6876C9.86442 10.8187 9.79067 10.9964 9.79067 11.1817C9.79067 11.3671 9.86442 11.5448 9.9957 11.6759C10.127 11.807 10.305 11.8806 10.4907 11.8806H12.348V16.3252C12.348 16.5105 12.4218 16.6883 12.553 16.8193C12.6843 16.9504 12.8624 17.024 13.048 17.024C13.2337 17.024 13.4117 16.9504 13.543 16.8193C13.6743 16.6883 13.748 16.5105 13.748 16.3252V11.8806H15.596C15.7817 11.8806 15.9597 11.807 16.091 11.6759C16.2223 11.5448 16.296 11.3671 16.296 11.1817C16.296 10.9964 16.2223 10.8187 16.091 10.6876C15.9597 10.5565 15.7817 10.4829 15.596 10.4829H10.4907ZM24.1239 10.6273C24.209 10.6926 24.2779 10.7766 24.3253 10.8727C24.3727 10.9689 24.3974 11.0746 24.3973 11.1817V16.3252C24.3973 16.5105 24.3236 16.6883 24.1923 16.8193C24.061 16.9504 23.883 17.024 23.6973 17.024C23.5117 17.024 23.3336 16.9504 23.2024 16.8193C23.0711 16.6883 22.9973 16.5105 22.9973 16.3252V12.8683L21.4387 14.4243C21.3732 14.4898 21.2953 14.5416 21.2096 14.5768C21.1239 14.612 21.032 14.6299 20.9393 14.6293C20.8465 14.63 20.7545 14.6122 20.6686 14.577C20.5827 14.5418 20.5047 14.4899 20.4391 14.4243L18.8907 12.8729V16.3252C18.8907 16.5105 18.8169 16.6883 18.6856 16.8193C18.5544 16.9504 18.3763 17.024 18.1907 17.024C18.005 17.024 17.827 16.9504 17.6957 16.8193C17.5644 16.6883 17.4907 16.5105 17.4907 16.3252V11.1817C17.4907 11.0435 17.5317 10.9084 17.6086 10.7934C17.6855 10.6785 17.7949 10.5889 17.9228 10.536C18.0509 10.4832 18.1919 10.4695 18.3278 10.4967C18.4637 10.5239 18.5885 10.5908 18.6863 10.6888L20.9403 12.9456L23.2027 10.6879C23.3311 10.5595 23.5044 10.486 23.6861 10.4829H23.6973C23.8516 10.4828 24.0015 10.5336 24.1239 10.6273ZM7.49281 11.069C7.28747 10.6357 6.84881 10.536 6.60334 10.536C6.35881 10.536 5.91921 10.6357 5.71388 11.069L3.43281 16.0335C3.39444 16.117 3.37292 16.2072 3.36947 16.2989C3.36601 16.3907 3.38069 16.4822 3.41268 16.5683C3.44466 16.6544 3.49331 16.7334 3.55585 16.8007C3.6184 16.868 3.69362 16.9224 3.77721 16.9607C3.8608 16.999 3.95113 17.0204 4.04304 17.0239C4.13495 17.0273 4.22663 17.0127 4.31287 16.9808C4.3991 16.9488 4.4782 16.9003 4.54563 16.8378C4.61306 16.7754 4.66751 16.7003 4.70587 16.6168L5.08388 15.7941H8.12281L8.50081 16.6168C8.57829 16.7854 8.71966 16.9163 8.89381 16.9808C9.06797 17.0452 9.26065 17.038 9.42947 16.9607C9.59829 16.8833 9.72942 16.7422 9.79401 16.5683C9.8586 16.3944 9.85135 16.2021 9.77387 16.0335L7.49654 11.0765L7.49281 11.069ZM7.48068 14.3964H5.72601L6.60334 12.4862L7.48068 14.3964Z" fill="black"/>
<path d="M4.66667 0C4.05383 0 3.447 0.120506 2.88081 0.354638C2.31462 0.58877 1.80018 0.931943 1.36683 1.36456C0.491665 2.23828 0 3.42329 0 4.65891V23.2945C0 24.5302 0.491665 25.7152 1.36683 26.5889C1.80018 27.0215 2.31462 27.3647 2.88081 27.5988C3.447 27.8329 4.05383 27.9535 4.66667 27.9535H23.3333C24.571 27.9535 25.758 27.4626 26.6332 26.5889C27.5083 25.7152 28 24.5302 28 23.2945V4.65891C28 4.04709 27.8793 3.44127 27.6448 2.87602C27.4102 2.31078 27.0665 1.79718 26.6332 1.36456C26.1998 0.931943 25.6854 0.58877 25.1192 0.354638C24.553 0.120506 23.9462 0 23.3333 0H4.66667ZM1.86667 4.65891C1.86667 3.91754 2.16167 3.20653 2.68677 2.6823C3.21187 2.15807 3.92406 1.86356 4.66667 1.86356H23.3333C24.0759 1.86356 24.7881 2.15807 25.3132 2.6823C25.8383 3.20653 26.1333 3.91754 26.1333 4.65891V23.2945C26.1333 24.0359 25.8383 24.7469 25.3132 25.2712C24.7881 25.7954 24.0759 26.0899 23.3333 26.0899H4.66667C3.92406 26.0899 3.21187 25.7954 2.68677 25.2712C2.16167 24.7469 1.86667 24.0359 1.86667 23.2945V4.65891Z" fill="black"/>
</svg>
