<svg width="26" height="29" viewBox="0 0 26 29" fill="none" xmlns="http://www.w3.org/2000/svg">
<path d="M7.07834 0.446605C6.99534 0.310339 6.87816 0.197616 6.73818 0.119367C6.59819 0.0411182 6.44015 0 6.27939 0C6.11862 0 5.96059 0.0411182 5.8206 0.119367C5.68062 0.197616 5.56344 0.310339 5.48044 0.446605L3.0826 4.4691C3.0031 4.60613 2.9617 4.76156 2.96262 4.91957C2.96353 5.07758 3.00673 5.23253 3.08782 5.36865C3.1689 5.50477 3.28498 5.61719 3.42423 5.69448C3.56349 5.77176 3.72094 5.81115 3.88057 5.80864H8.67625C9.38621 5.80864 9.83018 5.06337 9.47422 4.4691L7.07834 0.446605ZM19.9926 5.36342C19.9096 5.49968 19.7924 5.6124 19.6525 5.69065C19.5125 5.7689 19.3544 5.81002 19.1937 5.81002C19.0329 5.81002 18.8749 5.7689 18.7349 5.69065C18.5949 5.6124 18.4777 5.49968 18.3947 5.36342L15.9988 1.34092C15.9192 1.20375 15.8778 1.04814 15.8788 0.889957C15.8798 0.731777 15.9232 0.576689 16.0045 0.440512C16.0859 0.304336 16.2022 0.191944 16.3417 0.1148C16.4813 0.0376551 16.639 -0.0014815 16.7988 0.00138225H21.5905C22.3025 0.00138225 22.7445 0.746647 22.3924 1.34092L19.9926 5.36342Z" fill="black"/>
<path d="M7.0167 13.6282C7.02444 13.8123 6.99416 13.996 6.92768 14.1682C6.86119 14.3405 6.75987 14.4978 6.62981 14.6307C6.49975 14.7636 6.34363 14.8694 6.17083 14.9416C5.99803 15.0139 5.81212 15.0511 5.62427 15.0511C5.43642 15.0511 5.2505 15.0139 5.0777 14.9416C4.9049 14.8694 4.74878 14.7636 4.61872 14.6307C4.48866 14.4978 4.38734 14.3405 4.32085 14.1682C4.25437 13.996 4.22409 13.8123 4.23183 13.6282C4.24666 13.2759 4.39985 12.9428 4.65936 12.6986C4.91887 12.4544 5.2646 12.3181 5.62427 12.3181C5.98393 12.3181 6.32966 12.4544 6.58917 12.6986C6.84868 12.9428 7.00187 13.2759 7.0167 13.6282ZM4.08726 23.9433V16.8772C4.08726 16.792 4.05273 16.7103 3.99128 16.65C3.92983 16.5898 3.84649 16.5559 3.75959 16.5559C3.67269 16.5559 3.58934 16.5898 3.52789 16.65C3.46644 16.7103 3.43192 16.792 3.43192 16.8772V18.8387C3.43192 18.9767 3.37599 19.1091 3.27642 19.2068C3.17686 19.3044 3.04182 19.3592 2.90102 19.3592C2.76022 19.3592 2.62518 19.3044 2.52562 19.2068C2.42605 19.1091 2.37012 18.9767 2.37012 18.8387V16.481C2.37012 15.9697 2.79437 15.5537 3.31579 15.5537H7.94815C8.46957 15.5537 8.89382 15.9697 8.89382 16.481V18.8387C8.89382 18.9767 8.83788 19.1091 8.73832 19.2068C8.63876 19.3044 8.50372 19.3592 8.36292 19.3592C8.22211 19.3592 8.08707 19.3044 7.98751 19.2068C7.88795 19.1091 7.83201 18.9767 7.83201 18.8387V16.8772C7.83201 16.792 7.79749 16.7103 7.73604 16.65C7.67459 16.5898 7.59125 16.5559 7.50435 16.5559C7.41744 16.5559 7.3341 16.5898 7.27265 16.65C7.2112 16.7103 7.17668 16.792 7.17668 16.8772V23.9422C7.17668 24.0802 7.12075 24.2127 7.02118 24.3103C6.92162 24.4079 6.78658 24.4628 6.64578 24.4628C6.50497 24.4628 6.36994 24.4079 6.27037 24.3103C6.17081 24.2127 6.11488 24.0802 6.11488 23.9422V20.0994C6.11812 20.0353 6.10803 19.9711 6.08523 19.9109C6.06242 19.8507 6.02737 19.7957 5.98221 19.7491C5.93705 19.7026 5.88272 19.6656 5.82251 19.6402C5.7623 19.6149 5.69748 19.6019 5.63197 19.6019C5.56646 19.6019 5.50163 19.6149 5.44143 19.6402C5.38122 19.6656 5.32688 19.7026 5.28172 19.7491C5.23656 19.7957 5.20152 19.8507 5.17871 19.9109C5.15591 19.9711 5.14582 20.0353 5.14906 20.0994V23.9433C5.14906 24.0814 5.09313 24.2138 4.99356 24.3115C4.894 24.4091 4.75896 24.4639 4.61816 24.4639C4.47735 24.4639 4.34232 24.4091 4.24275 24.3115C4.14319 24.2138 4.08726 24.0814 4.08726 23.9433ZM14.5204 13.6282C14.5259 13.811 14.4939 13.9929 14.4263 14.1633C14.3587 14.3337 14.257 14.489 14.1271 14.6202C13.9972 14.7513 13.8418 14.8555 13.6701 14.9267C13.4984 14.9979 13.3138 15.0346 13.1274 15.0346C12.941 15.0346 12.7564 14.9979 12.5847 14.9267C12.413 14.8555 12.2576 14.7513 12.1277 14.6202C11.9978 14.489 11.8961 14.3337 11.8285 14.1633C11.761 13.9929 11.7289 13.811 11.7344 13.6282C11.745 13.2729 11.8964 12.9355 12.1564 12.6878C12.4165 12.4401 12.7648 12.3016 13.1274 12.3016C13.49 12.3016 13.8383 12.4401 14.0984 12.6878C14.3585 12.9355 14.5099 13.2729 14.5204 13.6282ZM11.5898 23.9433V16.8772C11.5898 16.7921 11.5553 16.7106 11.494 16.6504C11.4327 16.5903 11.3495 16.5565 11.2627 16.5565C11.176 16.5565 11.0928 16.5903 11.0315 16.6504C10.9701 16.7106 10.9357 16.7921 10.9357 16.8772V18.8387C10.9357 18.9767 10.8797 19.1091 10.7802 19.2068C10.6806 19.3044 10.5456 19.3592 10.4048 19.3592C10.264 19.3592 10.1289 19.3044 10.0294 19.2068C9.92979 19.1091 9.87385 18.9767 9.87385 18.8387V16.481C9.87385 15.9697 10.2981 15.5537 10.8195 15.5537H15.4519C15.9733 15.5537 16.3964 15.9697 16.3964 16.481V18.8387C16.3964 18.9767 16.3404 19.1091 16.2409 19.2068C16.1413 19.3044 16.0063 19.3592 15.8655 19.3592C15.7247 19.3592 15.5896 19.3044 15.4901 19.2068C15.3905 19.1091 15.3346 18.9767 15.3346 18.8387V16.8772C15.3346 16.7921 15.3001 16.7106 15.2388 16.6504C15.1774 16.5903 15.0942 16.5565 15.0075 16.5565C14.9207 16.5565 14.8376 16.5903 14.7762 16.6504C14.7149 16.7106 14.6804 16.7921 14.6804 16.8772V23.9422C14.6804 24.0802 14.6245 24.2127 14.5249 24.3103C14.4254 24.4079 14.2903 24.4628 14.1495 24.4628C14.0087 24.4628 13.8737 24.4079 13.7741 24.3103C13.6745 24.2127 13.6186 24.0802 13.6186 23.9422V20.0994C13.6186 20.0373 13.6061 19.9757 13.5819 19.9182C13.5576 19.8608 13.522 19.8086 13.4772 19.7646C13.4323 19.7206 13.3791 19.6858 13.3205 19.662C13.2619 19.6382 13.1991 19.6259 13.1357 19.6259C13.0723 19.6259 13.0095 19.6382 12.9509 19.662C12.8923 19.6858 12.8391 19.7206 12.7942 19.7646C12.7494 19.8086 12.7138 19.8608 12.6896 19.9182C12.6653 19.9757 12.6528 20.0373 12.6528 20.0994V23.9433C12.6528 24.0814 12.5969 24.2138 12.4973 24.3115C12.3977 24.4091 12.2627 24.4639 12.1219 24.4639C11.9811 24.4639 11.8461 24.4091 11.7465 24.3115C11.6469 24.2138 11.5898 24.0814 11.5898 23.9433ZM22.0254 13.6282C22.0254 13.8077 21.9893 13.9854 21.9193 14.1512C21.8492 14.317 21.7466 14.4676 21.6172 14.5945C21.4878 14.7214 21.3341 14.8221 21.1651 14.8907C20.996 14.9594 20.8148 14.9948 20.6317 14.9948C20.4487 14.9948 20.2675 14.9594 20.0984 14.8907C19.9293 14.8221 19.7757 14.7214 19.6463 14.5945C19.5169 14.4676 19.4142 14.317 19.3442 14.1512C19.2742 13.9854 19.2381 13.8077 19.2381 13.6282C19.2381 13.2658 19.3849 12.9182 19.6463 12.662C19.9077 12.4057 20.2621 12.2617 20.6317 12.2617C21.0014 12.2617 21.3558 12.4057 21.6172 12.662C21.8785 12.9182 22.0254 13.2658 22.0254 13.6282ZM19.0947 23.9433V16.8772C19.0947 16.7921 19.0603 16.7106 18.9989 16.6504C18.9376 16.5903 18.8544 16.5565 18.7677 16.5565C18.6809 16.5565 18.5977 16.5903 18.5364 16.6504C18.475 16.7106 18.4406 16.7921 18.4406 16.8772V18.8387C18.4406 18.9767 18.3846 19.1091 18.2851 19.2068C18.1855 19.3044 18.0505 19.3592 17.9097 19.3592C17.7689 19.3592 17.6338 19.3044 17.5343 19.2068C17.4347 19.1091 17.3788 18.9767 17.3788 18.8387V16.481C17.3788 15.9697 17.8018 15.5537 18.3233 15.5537H22.9556C23.477 15.5537 23.9013 15.9697 23.9013 16.481V18.8387C23.9013 18.9767 23.8454 19.1091 23.7458 19.2068C23.6462 19.3044 23.5112 19.3592 23.3704 19.3592C23.2296 19.3592 23.0945 19.3044 22.995 19.2068C22.8954 19.1091 22.8395 18.9767 22.8395 18.8387V16.8772C22.8395 16.792 22.805 16.7103 22.7435 16.65C22.6821 16.5898 22.5987 16.5559 22.5118 16.5559C22.4249 16.5559 22.3416 16.5898 22.2801 16.65C22.2187 16.7103 22.1842 16.792 22.1842 16.8772V23.9422C22.1842 24.0802 22.1282 24.2127 22.0287 24.3103C21.9291 24.4079 21.7941 24.4628 21.6533 24.4628C21.5124 24.4628 21.3774 24.4079 21.2778 24.3103C21.1783 24.2127 21.1223 24.0802 21.1223 23.9422V20.0994C21.1223 19.9739 21.0715 19.8534 20.9809 19.7646C20.8903 19.6758 20.7675 19.6259 20.6394 19.6259C20.5114 19.6259 20.3885 19.6758 20.298 19.7646C20.2074 19.8534 20.1565 19.9739 20.1565 20.0994V23.9433C20.1565 24.0814 20.1006 24.2138 20.001 24.3115C19.9015 24.4091 19.7664 24.4639 19.6256 24.4639C19.4848 24.4639 19.3498 24.4091 19.2502 24.3115C19.1507 24.2138 19.0947 24.0814 19.0947 23.9433Z" fill="black"/>
<path fill-rule="evenodd" clip-rule="evenodd" d="M2.96263 6.93945C2.17689 6.93945 1.42333 7.24552 0.867733 7.79031C0.312133 8.33511 0 9.07401 0 9.84446V26.0951C0 26.8655 0.312133 27.6044 0.867733 28.1492C1.42333 28.694 2.17689 29.0001 2.96263 29.0001H23.0374C23.8231 29.0001 24.5767 28.694 25.1323 28.1492C25.6879 27.6044 26 26.8655 26 26.0951V9.84446C26 9.07401 25.6879 8.33511 25.1323 7.79031C24.5767 7.24552 23.8231 6.93945 23.0374 6.93945H2.96263ZM1.18505 9.84446C1.18505 9.38219 1.37233 8.93885 1.70569 8.61197C2.03905 8.28509 2.49118 8.10146 2.96263 8.10146H23.0374C23.5088 8.10146 23.961 8.28509 24.2943 8.61197C24.6277 8.93885 24.815 9.38219 24.815 9.84446V26.0951C24.815 26.5574 24.6277 27.0007 24.2943 27.3276C23.961 27.6545 23.5088 27.8381 23.0374 27.8381H2.96263C2.49118 27.8381 2.03905 27.6545 1.70569 27.3276C1.37233 27.0007 1.18505 26.5574 1.18505 26.0951V9.84446Z" fill="black"/>
</svg>
