<svg width="27" height="27" viewBox="0 0 27 27" fill="none" xmlns="http://www.w3.org/2000/svg">
<path d="M13.5 0C10.83 0 8.21987 0.791761 5.99981 2.27516C3.77974 3.75856 2.04942 5.86697 1.02763 8.33377C0.00584934 10.8006 -0.261496 13.515 0.259405 16.1337C0.780305 18.7525 2.06606 21.1579 3.95406 23.0459C5.84207 24.9339 8.24754 26.2197 10.8663 26.7406C13.485 27.2615 16.1994 26.9942 18.6662 25.9724C21.133 24.9506 23.2414 23.2203 24.7248 21.0002C26.2082 18.7801 27 16.17 27 13.5C26.9962 9.92074 25.5727 6.48915 23.0418 3.95823C20.5108 1.42731 17.0793 0.00377976 13.5 0ZM13.5 24.9231C11.2407 24.9231 9.0322 24.2531 7.15368 22.9979C5.27517 21.7428 3.81104 19.9587 2.94646 17.8714C2.08187 15.7841 1.85566 13.4873 2.29642 11.2715C2.73718 9.05561 3.82512 7.02021 5.42267 5.42266C7.02022 3.82512 9.05561 2.73718 11.2715 2.29641C13.4873 1.85565 15.7841 2.08187 17.8714 2.94645C19.9587 3.81104 21.7428 5.27516 22.9979 7.15368C24.2531 9.03219 24.9231 11.2407 24.9231 13.5C24.9196 16.5285 23.715 19.432 21.5735 21.5735C19.432 23.715 16.5285 24.9196 13.5 24.9231ZM14.5385 7.26923H10.3846C10.1092 7.26923 9.84507 7.37864 9.65032 7.57339C9.45557 7.76814 9.34616 8.03227 9.34616 8.30769V18.6923C9.34616 18.9677 9.45557 19.2319 9.65032 19.4266C9.84507 19.6214 10.1092 19.7308 10.3846 19.7308C10.66 19.7308 10.9242 19.6214 11.1189 19.4266C11.3137 19.2319 11.4231 18.9677 11.4231 18.6923V16.6154H14.5385C15.7778 16.6154 16.9665 16.123 17.8428 15.2467C18.7192 14.3703 19.2115 13.1817 19.2115 11.9423C19.2115 10.7029 18.7192 9.51431 17.8428 8.63794C16.9665 7.76157 15.7778 7.26923 14.5385 7.26923ZM14.5385 14.5385H11.4231V9.34615H14.5385C15.227 9.34615 15.8873 9.61967 16.3742 10.1065C16.8611 10.5934 17.1346 11.2538 17.1346 11.9423C17.1346 12.6308 16.8611 13.2912 16.3742 13.7781C15.8873 14.2649 15.227 14.5385 14.5385 14.5385Z" fill="black"/>
</svg>
