<svg width="31" height="24" viewBox="0 0 31 24" fill="none" xmlns="http://www.w3.org/2000/svg">
<path d="M7.73828 7.80762C8.39669 7.96481 8.79004 8.48965 8.79004 9V15.375C8.79004 15.3839 8.78863 15.4054 8.75586 15.4355C8.72145 15.4672 8.6576 15.4999 8.56641 15.5H7.1582V22.875C7.1582 22.8839 7.1568 22.9054 7.12402 22.9355C7.08956 22.9672 7.02577 23 6.93457 23H2.85547C2.76431 23 2.7005 22.9671 2.66602 22.9355C2.63324 22.9054 2.63184 22.8839 2.63184 22.875V15.5H1.22363C1.13244 15.5 1.06863 15.4672 1.03418 15.4355C1.0014 15.4054 1 15.3839 1 15.375V9C1 8.48985 1.39284 7.96503 2.05078 7.80762C2.89477 8.24604 3.865 8.49993 4.89453 8.5C5.92395 8.5 6.89433 8.24589 7.73828 7.80762ZM27.291 7.82031C27.5282 7.90266 27.6465 8.06218 27.6738 8.16504L27.6748 8.16602L29.999 16.875C29.9985 16.8762 29.9981 16.8779 29.9971 16.8799C29.9941 16.8852 29.9883 16.8936 29.9795 16.9033C29.9429 16.9436 29.8566 16.9999 29.7168 17H25.9219V22.875C25.9219 22.8839 25.9205 22.9054 25.8877 22.9355C25.8532 22.9671 25.7893 23 25.6982 23H23.251C23.1598 23 23.096 22.9671 23.0615 22.9355C23.0287 22.9054 23.0273 22.8839 23.0273 22.875V17H19.2334C19.0939 17 19.0057 16.944 18.9668 16.9014C18.9478 16.8805 18.9429 16.8662 18.9424 16.8643L21.2646 8.16602L21.2656 8.16504C21.2929 8.06228 21.4107 7.90273 21.6475 7.82031C22.4848 8.24919 23.4452 8.5 24.4697 8.5C25.494 8.49998 26.4538 8.24898 27.291 7.82031ZM15.3164 1V23H14.0527V1H15.3164ZM4.89453 1C6.22302 1 7.1582 1.97513 7.1582 3C7.1582 4.02487 6.22302 5 4.89453 5C3.56626 4.9998 2.63184 4.02476 2.63184 3C2.63184 1.97524 3.56626 1.0002 4.89453 1ZM24.4746 1C25.8031 1 26.7383 1.97513 26.7383 3C26.7383 4.02487 25.8031 5 24.4746 5C23.1462 4.99994 22.2119 4.02484 22.2119 3C22.2119 1.97516 23.1462 1.00006 24.4746 1Z" fill="#EEEEEE" stroke="black" stroke-width="2"/>
</svg>
