<svg width="24" height="29" viewBox="0 0 24 29" fill="none" xmlns="http://www.w3.org/2000/svg">
<path d="M22.4177 7.25163C22.1926 7.23578 21.9659 7.25776 21.7509 7.31631C21.5358 7.37487 21.3365 7.46883 21.1645 7.59281C20.9925 7.71679 20.8512 7.86832 20.7487 8.03869C20.6462 8.20907 20.5845 8.39491 20.5672 8.58553L19.9675 15.1825C19.1752 14.975 18.4645 14.5891 17.9114 14.0661C17.7506 13.9118 17.5528 13.7883 17.3313 13.7036C17.1097 13.619 16.8694 13.5752 16.6263 13.5752C16.3832 13.5752 16.1429 13.619 15.9213 13.7036C15.6998 13.7883 15.502 13.9118 15.3412 14.0661C14.9159 14.4572 14.3994 14.7693 13.8243 14.9828C13.2492 15.1963 12.628 15.3066 12 15.3066C11.372 15.3066 10.7508 15.1963 10.1757 14.9828C9.60056 14.7693 9.08405 14.4572 8.65879 14.0661C8.498 13.9118 8.30025 13.7883 8.07868 13.7036C7.85711 13.619 7.6168 13.5752 7.37371 13.5752C7.13061 13.5752 6.8903 13.619 6.66873 13.7036C6.44716 13.7883 6.24942 13.9118 6.08862 14.0661C5.53384 14.5874 4.82371 14.973 4.03249 15.1825L3.43279 8.58553C3.41549 8.39491 3.35381 8.20907 3.2513 8.03869C3.14879 7.86832 3.00748 7.71679 2.83548 7.59281C2.66349 7.46883 2.46422 7.37487 2.24914 7.31631C2.03407 7.25776 1.80743 7.23578 1.58227 7.25163C1.357 7.26627 1.13737 7.31846 0.936029 7.4052C0.734687 7.49195 0.555608 7.61153 0.409096 7.75706C0.262585 7.9026 0.151535 8.07122 0.0823388 8.25322C0.0131423 8.43521 -0.012835 8.62699 0.0059029 8.81752L1.47946 24.9838C1.57895 26.0786 2.16413 27.1011 3.11756 27.8461C4.07099 28.591 5.3221 29.0032 6.61979 29H17.4145C18.7122 29.0032 19.9633 28.591 20.9167 27.8461C21.8701 27.1011 22.4553 26.0786 22.5548 24.9838L23.9941 8.81752C24.0128 8.62699 23.9869 8.43521 23.9177 8.25322C23.8485 8.07122 23.7374 7.9026 23.5909 7.75706C23.4444 7.61153 23.2653 7.49195 23.064 7.4052C22.8626 7.31846 22.643 7.26627 22.4177 7.25163ZM19.0937 24.7663C19.0591 25.1304 18.8635 25.47 18.5458 25.7173C18.2281 25.9646 17.8119 26.1014 17.3802 26.1002H6.60266C6.17101 26.1014 5.75474 25.9646 5.43707 25.7173C5.1194 25.47 4.92374 25.1304 4.88921 24.7663L4.28951 18.1258C5.39995 17.9281 6.45003 17.5381 7.37371 16.9804C8.72507 17.7933 10.342 18.23 12 18.23C13.658 18.23 15.2749 17.7933 16.6263 16.9804C17.55 17.5381 18.6001 17.9281 19.7105 18.1258L19.0937 24.7663ZM12 11.6013C13.4755 11.5975 14.8893 11.0998 15.9327 10.2169C16.976 9.33405 17.5642 8.13772 17.5687 6.88916C17.5687 2.90196 13.148 0.350159 12.9595 0.248667C12.6762 0.0866042 12.342 0 12 0C11.658 0 11.3238 0.0866042 11.0405 0.248667C10.852 0.364658 6.43131 2.90196 6.43131 6.88916C6.43583 8.13772 7.02398 9.33405 8.06734 10.2169C9.11069 11.0998 10.5245 11.5975 12 11.6013ZM12 3.33693C13.2414 4.23446 14.0116 5.51188 14.1418 6.88916C14.1418 7.36983 13.9161 7.83081 13.5145 8.1707C13.1128 8.51058 12.568 8.70152 12 8.70152C11.432 8.70152 10.8872 8.51058 10.4855 8.1707C10.0839 7.83081 9.8582 7.36983 9.8582 6.88916C9.9992 5.51449 10.7674 4.24035 12 3.33693Z" fill="black"/>
</svg>
