<svg width="27" height="27" viewBox="0 0 27 27" fill="none" xmlns="http://www.w3.org/2000/svg">
<path d="M26.949 21.6834C26.9075 21.5587 26.8418 21.4435 26.7558 21.3443C26.6697 21.2451 26.5649 21.1638 26.4474 21.105C26.3299 21.0463 26.202 21.0113 26.071 21.002C25.94 20.9927 25.8084 21.0093 25.6838 21.0508L23.5058 21.7771L19.8926 14.5516C19.8095 14.3856 19.6819 14.246 19.524 14.1484C19.3662 14.0509 19.1842 13.9991 18.9986 13.999H8.99657V10.9988H15.998C16.2633 10.9988 16.5177 10.8934 16.7053 10.7059C16.8928 10.5183 16.9982 10.264 16.9982 9.99873C16.9982 9.73349 16.8928 9.47912 16.7053 9.29157C16.5177 9.10402 16.2633 8.99866 15.998 8.99866H8.99657V7.87357C9.93942 7.63016 10.7611 7.05128 11.3076 6.24544C11.8542 5.4396 12.088 4.46213 11.9653 3.49624C11.8426 2.53036 11.3718 1.64237 10.6411 0.998736C9.91048 0.355099 8.97014 0 7.99636 0C7.02259 0 6.08224 0.355099 5.35158 0.998736C4.62092 1.64237 4.15012 2.53036 4.02742 3.49624C3.90472 4.46213 4.13855 5.4396 4.68507 6.24544C5.2316 7.05128 6.0533 7.63016 6.99615 7.87357V9.22492C4.83953 9.71777 2.93993 10.9874 1.65992 12.7915C0.3799 14.5955 -0.190895 16.8077 0.0564765 19.0058C0.303848 21.2039 1.35206 23.2339 3.00105 24.7084C4.65004 26.1829 6.78433 26.9987 8.99657 27C13.1874 27 16.9595 24.161 17.9672 20.2495C18 20.1223 18.0075 19.9898 17.9891 19.8597C17.9707 19.7296 17.9269 19.6044 17.8602 19.4912C17.7934 19.378 17.705 19.2791 17.6 19.2001C17.495 19.1211 17.3755 19.0635 17.2483 19.0307C17.121 18.9978 16.9886 18.9904 16.8584 19.0087C16.7283 19.0271 16.6031 19.0709 16.4899 19.1376C16.3767 19.2044 16.2777 19.2928 16.1987 19.3977C16.1197 19.5027 16.0621 19.6222 16.0293 19.7495C15.2591 22.7497 12.236 24.9998 8.99657 24.9998C7.31522 24.9993 5.69022 24.3938 4.41857 23.294C3.14693 22.1942 2.31358 20.6736 2.07083 19.01C1.82809 17.3465 2.19216 15.6512 3.0965 14.234C4.00084 12.8167 5.38506 11.7722 6.99615 11.2913V14.9991C6.99615 15.2643 7.10153 15.5187 7.28911 15.7063C7.47668 15.8938 7.73109 15.9992 7.99636 15.9992H18.3798L22.1043 23.4472C22.2122 23.6624 22.3942 23.8315 22.6167 23.9233C22.8392 24.0152 23.0875 24.0237 23.3158 23.9473L26.3164 22.9472C26.5678 22.8633 26.7756 22.6831 26.8942 22.4461C27.0128 22.2092 27.0326 21.9348 26.949 21.6834ZM5.99595 3.99828C5.99595 3.60269 6.11327 3.21598 6.33308 2.88706C6.55289 2.55814 6.86531 2.30177 7.23083 2.15038C7.59636 1.999 7.99858 1.95939 8.38662 2.03656C8.77466 2.11374 9.1311 2.30424 9.41087 2.58396C9.69063 2.86369 9.88115 3.22008 9.95834 3.60807C10.0355 3.99606 9.99591 4.39823 9.8445 4.76371C9.69309 5.12919 9.4367 5.44157 9.10773 5.66135C8.77876 5.88112 8.392 5.99843 7.99636 5.99843C7.46582 5.99843 6.957 5.7877 6.58185 5.4126C6.2067 5.0375 5.99595 4.52875 5.99595 3.99828Z" fill="black"/>
</svg>
